HIERARCHY
ROOT hip
{
  OFFSET 0 0 0
  CHANNELS 6 Xposition Yposition Zposition Zrotation Yrotation Xrotation
  JOINT abdomen
  {
    OFFSET 0 20.6881 -0.73152
    CHANNELS 3 Zrotation Xrotation Yrotation
    JOINT chest
    {
      OFFSET 0 11.7043 -0.48768
      CHANNELS 3 Zrotation Xrotation Yrotation
      JOINT neck
      {
        OFFSET 0 22.1894 -2.19456
        CHANNELS 3 Zrotation Xrotation Yrotation
        JOINT head
        {
          OFFSET -0.24384 7.07133 1.2192
          CHANNELS 3 Zrotation Xrotation Yrotation
          JOINT leftEye
          {
            OFFSET 4.14528 8.04674 8.04672
            CHANNELS 3 Zrotation Xrotation Yrotation
            End Site
            {
              OFFSET 1 0 0
            }
          }
          JOINT rightEye
          {
            OFFSET -3.6576 8.04674 8.04672
            CHANNELS 3 Zrotation Xrotation Yrotation
            End Site
            {
              OFFSET 1 0 0
            }
          }
        }
      }
      JOINT rCollar
      {
        OFFSET -2.68224 19.2634 -4.8768
        CHANNELS 3 Zrotation Xrotation Yrotation
        JOINT rShldr
        {
          OFFSET -8.77824 -1.95073 1.46304
          CHANNELS 3 Zrotation Xrotation Yrotation
          JOINT rForeArm
          {
            OFFSET -28.1742 -1.7115 0.48768
            CHANNELS 3 Zrotation Xrotation Yrotation
            JOINT rHand
            {
              OFFSET -22.5879 0.773209 7.07136
              CHANNELS 3 Zrotation Xrotation Yrotation
              JOINT rThumb1
              {
                OFFSET -1.2192 -0.487915 3.41376
                CHANNELS 3 Zrotation Xrotation Yrotation
                JOINT rThumb2
                {
                  OFFSET -3.37035 -0.52449 3.41376
                  CHANNELS 3 Zrotation Xrotation Yrotation
                  End Site
                  {
                    OFFSET -1.78271 -1.18214 1.43049
                  }
                }
              }
              JOINT rIndex1
              {
                OFFSET -7.75947 0.938293 5.60832
                CHANNELS 3 Zrotation Xrotation Yrotation
                JOINT rIndex2
                {
                  OFFSET -2.54057 -0.884171 1.56538
                  CHANNELS 3 Zrotation Xrotation Yrotation
                  End Site
                  {
                    OFFSET -1.62519 -0.234802 1.16502
                  }
                }
              }
              JOINT rMid1
              {
                OFFSET -8.24714 1.18213 3.41376
                CHANNELS 3 Zrotation Xrotation Yrotation
                JOINT rMid2
                {
                  OFFSET -3.10165 -0.590103 1.0647
                  CHANNELS 3 Zrotation Xrotation Yrotation
                  End Site
                  {
                    OFFSET -2.48547 -0.328903 0.83742
                  }
                }
              }
              JOINT rRing1
              {
                OFFSET -8.82822 0.546677 1.51678
                CHANNELS 3 Zrotation Xrotation Yrotation
                JOINT rRing2
                {
                  OFFSET -2.60934 -0.819778 -0.0198488
                  CHANNELS 3 Zrotation Xrotation Yrotation
                  End Site
                  {
                    OFFSET -2.33842 -0.294052 0.168128
                  }
                }
              }
              JOINT rPinky1
              {
                OFFSET -8.27202 -0.0477905 -0.4584
                CHANNELS 3 Zrotation Xrotation Yrotation
                JOINT rPinky2
                {
                  OFFSET -1.82734 -0.647385 -0.700984
                  CHANNELS 3 Zrotation Xrotation Yrotation
                  End Site
                  {
                    OFFSET -1.69225 -0.51767 -0.607171
                  }
                }
              }
            }
          }
        }
      }
      JOINT lCollar
      {
        OFFSET 2.68224 19.2634 -4.8768
        CHANNELS 3 Zrotation Xrotation Yrotation
        JOINT lShldr
        {
          OFFSET 8.77824 -1.95073 1.46304
          CHANNELS 3 Zrotation Xrotation Yrotation
          JOINT lForeArm
          {
            OFFSET 28.1742 -1.7115 0.48768
            CHANNELS 3 Zrotation Xrotation Yrotation
            JOINT lHand
            {
              OFFSET 22.5879 0.773209 7.07136
              CHANNELS 3 Zrotation Xrotation Yrotation
              JOINT lThumb1
              {
                OFFSET 1.2192 -0.487915 3.41376
                CHANNELS 3 Zrotation Xrotation Yrotation
                JOINT lThumb2
                {
                  OFFSET 3.37035 -0.52449 3.41376
                  CHANNELS 3 Zrotation Xrotation Yrotation
                  End Site
                  {
                    OFFSET 1.78271 -1.18214 1.43049
                  }
                }
              }
              JOINT lIndex1
              {
                OFFSET 7.75947 0.938293 5.60832
                CHANNELS 3 Zrotation Xrotation Yrotation
                JOINT lIndex2
                {
                  OFFSET 2.54057 -0.884171 1.56538
                  CHANNELS 3 Zrotation Xrotation Yrotation
                  End Site
                  {
                    OFFSET 1.62519 -0.234802 1.16502
                  }
                }
              }
              JOINT lMid1
              {
                OFFSET 8.24714 1.18213 3.41376
                CHANNELS 3 Zrotation Xrotation Yrotation
                JOINT lMid2
                {
                  OFFSET 3.10165 -0.590103 1.0647
                  CHANNELS 3 Zrotation Xrotation Yrotation
                  End Site
                  {
                    OFFSET 2.48547 -0.328903 0.83742
                  }
                }
              }
              JOINT lRing1
              {
                OFFSET 8.82822 0.546677 1.51678
                CHANNELS 3 Zrotation Xrotation Yrotation
                JOINT lRing2
                {
                  OFFSET 2.60934 -0.819778 -0.0198488
                  CHANNELS 3 Zrotation Xrotation Yrotation
                  End Site
                  {
                    OFFSET 2.33842 -0.294052 0.168128
                  }
                }
              }
              JOINT lPinky1
              {
                OFFSET 8.27202 -0.0477905 -0.4584
                CHANNELS 3 Zrotation Xrotation Yrotation
                JOINT lPinky2
                {
                  OFFSET 1.82734 -0.647385 -0.700984
                  CHANNELS 3 Zrotation Xrotation Yrotation
                  End Site
                  {
                    OFFSET 1.69225 -0.51767 -0.607171
                  }
                }
              }
            }
          }
        }
      }
    }
  }
  JOINT rButtock
  {
    OFFSET -8.77824 4.35084 1.2192
    CHANNELS 3 Zrotation Xrotation Yrotation
    JOINT rThigh
    {
      OFFSET 0 -1.70687 -2.19456
      CHANNELS 3 Zrotation Xrotation Yrotation
      JOINT rShin
      {
        OFFSET 0 -36.8199 0.73152
        CHANNELS 3 Zrotation Xrotation Yrotation
        JOINT rFoot
        {
          OFFSET 0.73152 -45.1104 -5.12064
          CHANNELS 3 Zrotation Xrotation Yrotation
          End Site
          {
            OFFSET -1.1221 -3.69964 12.103
          }
        }
      }
    }
  }
  JOINT lButtock
  {
    OFFSET 8.77824 4.35084 1.2192
    CHANNELS 3 Zrotation Xrotation Yrotation
    JOINT lThigh
    {
      OFFSET 0 -1.70687 -2.19456
      CHANNELS 3 Zrotation Xrotation Yrotation
      JOINT lShin
      {
        OFFSET 0 -36.8199 0.73152
        CHANNELS 3 Zrotation Xrotation Yrotation
        JOINT lFoot
        {
          OFFSET -0.73152 -45.1104 -5.12064
          CHANNELS 3 Zrotation Xrotation Yrotation
          End Site
          {
            OFFSET 1.1221 -3.69964 12.103
          }
        }
      }
    }
  }
}
MOTION
Frames:	6
Frame Time:	0.00833333
-46.4393 76.7279 -9.93525 -32.5239 60.1086 -19.4849 6.70534 17.0868 14.9387 1.07677 -8.60571 4.50479 -6.11924 -5.47698 -4.62289 9.7486 -10.953 -6.01752 -0.0 0.0 0.0 -0.0 0.0 0.0 -5.17198e-14 -8.07318e-13 9.08259e-13 68.4559 39.6486 -3.95797 -24.1786 -49.1632 102.715 -0.194957 -12.511 -1.78686 -1.70054e-09 1.33626e-10 2.44884e-10 -2.94425e-09 2.35593e-10 4.09516e-10 -1.70052e-09 1.33626e-10 2.44867e-10 7.73091 5.47488 0.417314 -1.70054e-09 1.33627e-10 2.44888e-10 2.90554 0.965183 0.102902 -1.70052e-09 1.33628e-10 2.44868e-10 10.2786 0.731801 0.0259123 -1.70054e-09 1.33628e-10 2.44894e-10 2.22167 -0.733487 -0.20892 -5.1774e-14 -8.07319e-13 9.07961e-13 -92.6985 40.7968 17.6964 25.3854 -47.3629 -98.5387 0.136769 -10.5758 1.50313 -2.28765e-09 4.78544e-09 -5.98543e-09 -3.91537e-09 8.29517e-09 -1.03718e-08 -2.28765e-09 4.78543e-09 -5.98542e-09 -7.73091 5.47488 -0.417314 -2.28765e-09 4.78544e-09 -5.98544e-09 -2.90554 0.965183 -0.102902 -2.28765e-09 4.78544e-09 -5.98544e-09 -10.2786 0.731801 -0.0259123 -2.28764e-09 4.78544e-09 -5.98544e-09 -2.22167 -0.733487 0.20892 -2.03217e-16 0.0 -3.88251e-19 0.880663 8.43712 -9.31496 0.0368577 25.7409 1.25228 -1.90071 -6.87485 -5.58689 2.03217e-16 0.0 3.88251e-19 16.0532 -61.552 31.5691 1.17251 62.4418 -1.90648 0.957531 0.510054 9.81823
-45.2533 76.9612 -8.83281 -33.5038 59.9723 -19.9712 6.30375 16.5345 15.5633 0.837311 -8.49484 4.63741 -6.03638 -5.70946 -4.61374 9.47372 -11.1687 -6.01468 -0.0 0.0 0.0 -0.0 0.0 0.0 -1.19592e-13 -2.45698e-13 9.8458e-13 69.2188 40.128 -4.27078 -24.104 -49.2619 102.954 -0.182823 -12.0941 -1.72568 -2.00975e-09 -1.01641e-10 3.72265e-10 -3.48113e-09 -1.70961e-10 6.27319e-10 -2.00973e-09 -1.01642e-10 3.72243e-10 7.73091 5.47488 0.417314 -2.00975e-09 -1.01641e-10 3.72268e-10 2.90554 0.965183 0.102902 -2.00973e-09 -1.01641e-10 3.72244e-10 10.2786 0.731801 0.0259123 -2.00975e-09 -1.0164e-10 3.72274e-10 2.22167 -0.733487 -0.20892 -1.19653e-13 -2.45698e-13 9.84282e-13 -92.7339 41.0585 17.8499 25.5625 -47.0735 -97.8729 0.123131 -9.95585 1.4136 -2.69811e-09 5.60637e-09 -6.59091e-09 -4.62127e-09 9.7166e-09 -1.14222e-08 -2.69811e-09 5.60637e-09 -6.59089e-09 -7.73091 5.47488 -0.417314 -2.69811e-09 5.60637e-09 -6.59091e-09 -2.90554 0.965183 -0.102902 -2.69812e-09 5.60637e-09 -6.59091e-09 -10.2786 0.731801 -0.0259123 -2.6981e-09 5.60638e-09 -6.59092e-09 -2.22167 -0.733487 0.20892 -2.03217e-16 0.0 -3.88251e-19 1.00225 8.67159 -8.72094 0.0439143 25.0915 1.21659 -1.39664 -4.04577 -4.11856 2.03217e-16 0.0 3.88251e-19 15.285 -61.3594 30.2445 1.20057 62.824 -1.94141 0.956273 0.0734357 8.88551
-44.1387 77.2606 -7.58011 -36.6108 59.6606 -22.8008 6.01293 16.0357 15.9408 0.371039 -8.45772 4.6905 -6.05211 -5.89724 -4.60278 9.63723 -11.3462 -5.93382 -0.0 0.0 0.0 -0.0 0.0 0.0 -1.26356e-13 1.85587e-13 8.76159e-13 69.9358 40.5178 -4.43808 -24.1329 -49.2206 102.861 -0.183539 -12.1103 -1.7281 -1.77568e-09 -4.11558e-10 -6.83701e-10 -3.06807e-09 -7.09098e-10 -1.19636e-09 -1.77566e-09 -4.11561e-10 -6.83728e-10 7.73091 5.47488 0.417314 -1.77568e-09 -4.11561e-10 -6.83699e-10 2.90554 0.965183 0.102902 -1.77567e-09 -4.11561e-10 -6.8372e-10 10.2786 0.731801 0.0259123 -1.77569e-09 -4.1156e-10 -6.83693e-10 2.22167 -0.733487 -0.20892 -1.26428e-13 1.85587e-13 8.75882e-13 -92.7876 41.3621 18.1124 25.7639 -46.7257 -97.0916 0.126101 -10.0462 1.42685 -2.55453e-09 4.42451e-09 -4.34741e-09 -4.39086e-09 7.6663e-09 -7.54004e-09 -2.55453e-09 4.4245e-09 -4.3474e-09 -7.73091 5.47488 -0.417314 -2.55453e-09 4.42451e-09 -4.34742e-09 -2.90554 0.965183 -0.102902 -2.55454e-09 4.42451e-09 -4.34742e-09 -10.2786 0.731801 -0.0259123 -2.55452e-09 4.42451e-09 -4.34742e-09 -2.22167 -0.733487 0.20892 -2.03217e-16 0.0 -3.88251e-19 1.09322 8.83729 -8.15038 0.0505827 24.2874 1.16819 -1.01686 -0.573984 -2.72366 2.03217e-16 0.0 3.88251e-19 14.0197 -61.1738 28.3097 1.22287 63.0937 -1.95968 1.05384 -0.636462 8.50756
-42.9184 77.5315 -6.96293 -36.9274 59.98 -22.3395 5.81411 15.5682 16.1308 -0.229441 -8.46569 4.68715 -6.13536 -6.05622 -4.58396 10.0701 -11.4938 -5.78934 -0.0 0.0 0.0 -0.0 0.0 0.0 -9.85409e-14 5.99852e-13 6.40782e-13 70.6417 40.8937 -4.52958 -24.2455 -49.0685 102.497 -0.191222 -12.3625 -1.7652 -1.19821e-09 -8.04603e-10 -2.46568e-09 -2.05476e-09 -1.39266e-09 -4.27247e-09 -1.19819e-09 -8.04608e-10 -2.46571e-09 7.73091 5.47488 0.417314 -1.19821e-09 -8.04609e-10 -2.46568e-09 2.90554 0.965183 0.102902 -1.1982e-09 -8.0461e-10 -2.4657e-09 10.2786 0.731801 0.0259123 -1.19822e-09 -8.04608e-10 -2.46568e-09 2.22167 -0.733487 -0.20892 -9.86258e-14 5.99851e-13 6.40543e-13 -92.8675 41.6621 18.4239 25.9889 -46.2988 -96.1778 0.140339 -10.6113 1.50884 -2.05849e-09 1.98002e-09 -2.65392e-10 -3.5649e-09 3.42717e-09 -4.74786e-10 -2.05849e-09 1.98001e-09 -2.65385e-10 -7.73091 5.47488 -0.417314 -2.05849e-09 1.98002e-09 -2.65398e-10 -2.90554 0.965183 -0.102902 -2.0585e-09 1.98002e-09 -2.65393e-10 -10.2786 0.731801 -0.0259123 -2.05848e-09 1.98002e-09 -2.65398e-10 -2.22167 -0.733487 0.20892 -2.03217e-16 0.0 -3.88251e-19 1.17278 8.92595 -7.5755 0.0561231 23.4059 1.11201 -0.798577 3.42582 -1.36728 2.03217e-16 0.0 3.88251e-19 12.4707 -60.9699 25.9388 1.24487 63.3345 -1.96971 1.20997 -1.51966 8.38999
-41.5871 77.6797 -6.63197 -35.6881 61.1347 -20.5135 5.58599 15.1613 16.1771 -0.7501 -8.49289 4.65055 -6.24446 -6.21048 -4.55601 10.5585 -11.606 -5.61441 -0.0 0.0 0.0 -0.0 0.0 0.0 -5.01385e-14 7.54183e-13 3.76905e-13 71.3021 41.3312 -4.62077 -24.4089 -48.8464 101.963 -0.201385 -12.6835 -1.81254 -4.95617e-10 -1.13982e-09 -4.27416e-09 -8.2441e-10 -1.97649e-09 -7.39342e-09 -4.95596e-10 -1.13983e-09 -4.27419e-09 7.73091 5.47488 0.417314 -4.95613e-10 -1.13983e-09 -4.27416e-09 2.90554 0.965183 0.102902 -4.95608e-10 -1.13983e-09 -4.27416e-09 10.2786 0.731801 0.0259123 -4.95625e-10 -1.13983e-09 -4.27415e-09 2.22167 -0.733487 -0.20892 -5.02414e-14 7.54182e-13 3.76699e-13 -92.9525 41.8858 18.6677 26.2236 -45.8226 -95.1792 0.157013 -11.2179 1.59727 -1.44151e-09 -7.2404e-10 4.00739e-09 -2.53058e-09 -1.26101e-09 6.92103e-09 -1.44151e-09 -7.2404e-10 4.00739e-09 -7.73091 5.47488 -0.417314 -1.44151e-09 -7.24039e-10 4.00739e-09 -2.90554 0.965183 -0.102902 -1.44152e-09 -7.24039e-10 4.00739e-09 -10.2786 0.731801 -0.0259123 -1.44151e-09 -7.24038e-10 4.00739e-09 -2.22167 -0.733487 0.20892 -2.03217e-16 0.0 -3.88251e-19 1.28994 8.90713 -6.90763 0.0564402 22.678 1.05407 -0.760607 7.52302 -0.119757 2.03217e-16 0.0 3.88251e-19 10.9372 -60.6503 23.6004 1.26595 63.543 -1.97247 1.38394 -2.49378 8.33569
-40.3637 77.7992 -6.0198 -36.2205 62.0959 -20.4857 5.20922 14.8438 16.1225 -0.97693 -8.51344 4.60388 -6.33766 -6.38407 -4.51767 10.8882 -11.6771 -5.44231 -0.0 0.0 0.0 -0.0 0.0 0.0 4.85987e-15 4.05669e-13 1.82981e-13 71.8864 41.9055 -4.78983 -24.592 -48.596 101.354 -0.208755 -12.9062 -1.84549 1.13816e-10 -1.27627e-09 -5.4096e-09 2.39785e-10 -2.2154e-09 -9.35162e-09 1.13836e-10 -1.27628e-09 -5.40963e-09 7.73091 5.47488 0.417314 1.13821e-10 -1.27628e-09 -5.4096e-09 2.90554 0.965183 0.102902 1.13822e-10 -1.27628e-09 -5.4096e-09 10.2786 0.731801 0.0259123 1.13807e-10 -1.27628e-09 -5.40959e-09 2.22167 -0.733487 -0.20892 4.73181e-15 4.05669e-13 1.82783e-13 -93.0171 41.9618 18.7241 26.458 -45.3285 -94.1379 0.163044 -11.4328 1.62867 -9.35117e-10 -2.6846e-09 6.82317e-09 -1.6751e-09 -4.6585e-09 1.17949e-08 -9.35119e-10 -2.68459e-09 6.82317e-09 -7.73091 5.47488 -0.417314 -9.35112e-10 -2.68459e-09 6.82316e-09 -2.90554 0.965183 -0.102902 -9.35125e-10 -2.68459e-09 6.82317e-09 -10.2786 0.731801 -0.0259123 -9.35115e-10 -2.68459e-09 6.82317e-09 -2.22167 -0.733487 0.20892 -2.03217e-16 0.0 -3.88251e-19 1.49606 8.74946 -6.05857 0.0487769 22.3348 0.999666 -0.861337 11.2875 0.946625 2.03217e-16 0.0 3.88251e-19 9.71957 -60.1513 21.7704 1.28557 63.7158 -1.96898 1.52387 -3.47803 8.14658
